<svg width="90" height="30" viewBox="0 0 90 30" xmlns="http://www.w3.org/2000/svg">
<g fill="#999999">
	<path d="M16.11,7.03c0.51-1.04,0.61-1.92,0.3-2.91c-0.3-0.84-1.07-1.82-1.84-2.46c-1.12-0.94-2.81-0.79-4.65-0.1C6.04,3.03-0.15,9.05,0,16.15c0.05,2.71,1.43,4.83,2.96,5.62c1.89,0.99,4.75,1.04,7.21-0.69c1.43-1.04,3.63-3.5,2.81-5.77c-0.2-0.4-0.56-0.4-0.71-0.05c-2.6,4.93-6.28,7.15-8.53,5.48C2.05,19.42,1.74,14.48,4.76,9.6c3.11-4.99,8.38-7.7,9.35-6.66c0.82,0.79-0.41,2.71-1.02,4.44c-0.51,1.68,0.05,2.71,0.82,3.21c0.41,0.29,0.66,0.05,0.76-0.2C15.09,9.4,15.6,8.12,16.11,7.03z"/>
	<path d="M44.54,9.05c0.41-0.44,0.66-1.38,0.25-2.22c-0.41-0.89-1.43-1.28-1.99-0.74c-0.56,0.55-0.71,1.58-0.21,2.46C43.06,9.4,44.03,9.5,44.54,9.05z"/>
	<path d="M88.92,17.05c-1.07,2.32-2.91,4.49-4.5,4.59c-1.12,0.05-1.17-1.23-0.36-3.16c0.71-1.68,2.15-3.95,2.86-5.43c0.82-1.68,0.56-3.11,0.05-3.6c-0.31-0.29-0.51-0.2-0.82,0.2c-1.28,1.73-3.58,5.67-4.39,8.14c-0.1,0.35-0.2,0.64-0.3,0.94c-1.07,1.78-2.35,3.06-3.47,3.01c-1.07-0.05-1.43-1.38-0.87-3.21c0.56-1.68,2.3-3.99,3.93-5.82c1.02-1.13,0.21-2.71-0.46-3.41C80.28,8.94,80.03,9,79.51,9.34c-1.28,0.89-2.61,1.43-3.83,1.58c0.71-2.32,1.07-4.24,0-4.24c-1.38,0.1-4.65,4.64-1.89,5.62c-1.63,4.93-4.75,8.98-6.95,9.22c-1.07,0.1-1.22-1.13-0.41-3.06c0.76-1.73,2.61-4.29,3.27-5.82c0.76-1.68,0.51-3.06-0.05-3.65c-0.31-0.29-0.56-0.2-0.82,0.2c-0.25,0.35-0.66,1.04-1.22,1.88c0-1.18-0.66-2.22-1.99-2.22c-1.79,0-4.5,1.53-7.26,5.38c-0.82,1.18-1.33,2.37-1.63,3.5c-1.17,2.07-3.17,4.14-6.24,4.24c1.28-0.79,2.61-2.37,3.63-4.59c1.28-2.71,1.99-5.72,0.41-7.4c-1.48-1.48-3.53-0.54-5.06,0.69c0.05-0.54-0.05-1.09-0.2-1.48c-0.21-0.4-0.46-0.44-0.82-0.05c-1.38,1.78-4.19,6.61-6.34,10.75c-0.87,1.04-1.84,1.73-2.71,1.73c-1.12,0.05-1.17-1.23-0.36-3.16c0.71-1.68,2.15-3.95,2.86-5.43c0.82-1.68,0.56-3.11,0.05-3.6c-0.3-0.29-0.51-0.2-0.82,0.2c-1.28,1.73-3.58,5.67-4.39,8.14c0,0.05,0,0.05,0,0.1c-1.38,2.12-3.37,3.9-4.8,3.8c-1.53-0.15-1.17-2.91,0.2-6.16c3.07-1.92,6.95-5.92,8.03-10.06c0.41-1.58,0.2-2.76-0.82-3.65c-0.46-0.4-0.97-0.4-1.48,0.2c-3.42,3.41-7.41,9.52-8.64,15.29c-0.05,0.2-0.05,0.35-0.1,0.49c-1.22,2.02-2.86,3.9-4.19,3.99c-1.17,0.05-1.17-1.38-0.3-3.26c0.82-1.78,2.55-4.24,3.32-5.82c0.82-1.68,0.56-3.11,0.05-3.7c-0.25-0.29-0.51-0.25-0.82,0.2c-0.41,0.54-0.82,1.23-1.22,2.02c0.05-1.28-0.61-2.42-2.09-2.42c-1.74,0-4.45,1.48-7.26,5.43c-2.86,4.05-2.2,8.29,1.02,8.29c1.68,0,3.22-1.23,4.34-2.61c0,1.58,0.97,2.66,2.81,2.71c1.53,0.1,3.22-1.13,4.34-2.52c0.36,1.58,1.38,2.32,3.01,2.37c1.68,0.05,3.32-0.99,4.39-1.97c0.21,1.23,1.07,2.07,2.71,2.07c0.61,0,1.22-0.15,1.89-0.4c-0.71,1.48-1.28,2.76-1.53,3.55c-0.66,2.02-0.46,2.96,0.05,3.65c0.21,0.29,0.41,0.25,0.56-0.05c1.68-3.7,3.42-7.11,5.06-9.97c0.1,0.84,0.41,1.63,1.17,2.22c1.22,1.09,2.66,1.38,4.91,1.23c2.15-0.15,4.19-0.99,5.57-2.71c0.3,1.38,1.22,2.32,2.71,2.32c1.68,0,3.27-1.28,4.39-2.71c-0.05,1.73,1.02,2.86,2.86,2.71c3.68-0.29,6.85-5.28,8.49-10.01c1.07,0,2.55-0.4,4.09-1.23c-1.48,1.63-3.63,4.1-4.29,6.27c-0.82,2.71,0.21,4.98,2.81,5.03c1.28,0.05,2.66-0.59,3.63-1.68c0.36,1.04,1.17,1.63,2.61,1.63c1.94,0,4.14-1.38,5.16-3.5c0.41-0.84,0.51-1.53,0.25-2.07C89.38,16.8,89.13,16.8,88.92,17.05z M33.6,12.36c2.4-4.24,4.96-7.99,5.37-7.69c0.46,0.29-1.48,5.62-6.24,9.32C33.03,13.44,33.29,12.95,33.6,12.36z M17.9,21.48c-1.33-0.05-0.92-2.96,0.92-5.82c1.94-2.96,4.39-5.13,5.52-5.03c1.02,0.1,0.66,2.17-1.48,5.82C21.12,19.36,19.33,21.53,17.9,21.48z M47.05,20.94c-0.97-0.79-0.82-2.76,0.05-4.88c0.41-0.69,0.82-1.28,1.17-1.92c1.63-2.57,3.73-4.24,4.6-3.85c0.87,0.4,0.46,3.16-0.87,5.82C50.32,19.36,48.12,21.78,47.05,20.94z M59.88,21.38c-1.33-0.05-0.97-2.91,0.92-5.82c1.94-2.91,4.39-5.03,5.47-5.03c1.02,0.05,0.66,2.17-1.43,5.82C63.05,19.36,61.21,21.44,59.88,21.38z"/>
	<path d="M89.54,9.05c0.41-0.44,0.66-1.38,0.25-2.22c-0.41-0.89-1.43-1.28-1.99-0.74c-0.56,0.54-0.71,1.58-0.2,2.46C88.11,9.4,89.03,9.5,89.54,9.05z"/>
</g>
</svg>
